<?xml version="1.0" encoding="UTF-8" standalone="no"?>
<!-- Created with Inkscape (http://www.inkscape.org/) -->

<svg
   width="55"
   height="55"
   viewBox="0 0 55 55"
   version="1.1"
   id="svg5"
   xml:space="preserve"
   inkscape:version="1.2.1 (9c6d41e410, 2022-07-14)"
   sodipodi:docname="LOGO.svg"
   xmlns:inkscape="http://www.inkscape.org/namespaces/inkscape"
   xmlns:sodipodi="http://sodipodi.sourceforge.net/DTD/sodipodi-0.dtd"
   xmlns="http://www.w3.org/2000/svg"
   xmlns:svg="http://www.w3.org/2000/svg"><sodipodi:namedview
     id="namedview7"
     pagecolor="#ffffff"
     bordercolor="#666666"
     borderopacity="1.0"
     inkscape:showpageshadow="false"
     inkscape:pageopacity="0"
     inkscape:pagecheckerboard="0"
     inkscape:deskcolor="#d1d1d1"
     inkscape:document-units="px"
     showgrid="false"
     showborder="false"
     borderlayer="false"
     shape-rendering="crispEdges"
     inkscape:zoom="1.8474053"
     inkscape:cx="86.607957"
     inkscape:cy="75.240662"
     inkscape:window-width="1366"
     inkscape:window-height="715"
     inkscape:window-x="1272"
     inkscape:window-y="-8"
     inkscape:window-maximized="1"
     inkscape:current-layer="layer2" /><defs
     id="defs2" /><g
     inkscape:groupmode="layer"
     id="layer2"
     inkscape:label="LOGO"><path
       id="path979"
       style="opacity:1;fill:#ffffff;fill-opacity:1;stroke:#ffffff;stroke-width:0.373586;stroke-linecap:butt;stroke-linejoin:miter;stroke-dasharray:none;stroke-opacity:1"
       d="m 31.958737,16.150057 c -2.222157,0.0077 -4.192804,0.999708 -5.435948,2.57861 -0.328198,-0.741161 -2.316452,-1.245588 -3.716877,-1.380512 -1.351579,-0.130217 -2.417869,-0.18727 -3.718335,0.143013 -1.300467,0.330285 -2.711813,0.961313 -3.716877,1.930674 -0.895064,0.96118 -1.842008,2.598008 -2.317362,4.442146 l -5.6198755,0.06128 -0.0084,2.087406 5.4968455,-0.05748 c -0.663698,4.973728 0.412398,10.940384 4.878502,13.056495 0.285983,0.285983 4.392351,0.955445 6.435581,0.21452 0.712199,-0.258261 1.297995,-0.587109 1.777447,-1.033197 3.950456,2.650491 10.267562,2.26305 11.487726,-2.660332 1.31448,-5.303955 -2.024751,-7.101621 -5.543936,-8.532616 -0.778237,-0.316812 -1.487815,-0.668201 -2.107253,-1.065301 l 17.192193,-0.293322 4.5e-5,-1.787661 -19.192958,-0.03502 c -0.108754,-0.237311 -0.196071,-0.48618 -0.253923,-0.750088 0.194572,-6.009699 6.294057,-4.971793 9.342542,-2.854422 V 17.787409 C 35.268481,16.642713 33.549841,16.14454 31.958685,16.150057 Z m -10.59025,3.544677 c 1.154013,-0.0025 2.382741,0.139033 3.010569,0.442173 0.56582,0.2732 0.886416,0.47873 1.072595,0.614372 -0.280706,0.889152 -0.378014,1.866502 -0.242246,2.89966 0.0073,0.05592 0.02273,0.108423 0.03211,0.163443 l -9.647535,-0.01751 c 0.547733,-1.889224 1.697935,-3.421333 3.92264,-3.945989 0.653131,-0.102531 1.29879,-0.153377 1.851871,-0.156145 z m 4.888707,6.301325 c 1.260177,1.556616 3.3875,2.546112 5.128032,3.077697 4.094014,1.25037 5.237509,6.58665 1.647567,8.16195 -2.059675,0.84611 -4.812128,0.520488 -5.866446,-0.941259 l -0.07588,0.115286 c 0.485159,-2.482644 -0.129614,-8.703621 0.218897,-9.052133 l -6.577134,0.143012 0.214521,2.288207 3.932855,-0.07151 0.214517,6.005083 c -3.484956,3.01387 -8.313715,0.768348 -9.508898,-3.502357 -0.231242,-1.634138 -0.388082,-4.10171 -0.242268,-6.250216 z"
       sodipodi:nodetypes="ccssccccccscsccccccccscccscccccccccccccccccc" /></g></svg>
